<?xml version="1.0" encoding="UTF-8"?> <svg xmlns="http://www.w3.org/2000/svg" width="32" height="32" viewBox="0 0 32 32" fill="none"><g clip-path="url(#clip0_1279_122163)"><path d="M31.958 14.8719C31.743 14.4808 31.4347 14.7942 31.2168 14.8719C29.5193 15.5792 27.9746 16.4861 26.9731 18.0892C26.5544 18.7604 26.079 19.3928 25.5104 20.2193C25.3437 19.4429 25.3728 18.6384 25.5953 17.8756C25.9121 16.4001 26.9646 15.3795 27.8585 14.2479C28.4244 13.5268 29.1119 12.8611 29.392 11.8792C27.2192 12.2536 22.1097 15.3434 20.9187 16.9327C20.4943 17.4873 20.3529 17.9394 20.9385 18.5663C21.3657 19.0128 21.7731 19.8199 21.1365 20.3469C20.5707 20.824 19.7729 20.6076 19.1561 20.1916C18.9235 20.0259 18.733 19.8098 18.5995 19.5601C18.466 19.3104 18.3932 19.0339 18.3866 18.7521C18.2452 17.2876 18.4573 15.887 19.3457 14.6584C19.838 13.9732 20.3755 13.3187 20.9356 12.6836C21.3204 12.2509 21.3827 11.9208 20.9781 11.4327C19.7022 9.89892 18.8874 8.10444 18.2112 6.26556C17.5785 4.4195 17.057 2.53856 16.6495 0.632481C16.6722 0.332937 16.5703 0.0777772 16.2647 0.013986C15.9592 -0.049806 15.8093 0.108289 15.8263 0.413377C15.6819 0.987505 15.5434 1.56163 15.3934 2.1413C14.5955 5.5278 13.5544 8.81724 11.3251 11.613C10.9488 12.0844 11.2062 12.3591 11.492 12.6947C12.27 13.6044 13.0961 14.4864 13.577 15.5986C14.1033 16.8217 14.3183 18.0948 13.8769 19.3734C13.7642 19.729 13.5353 20.0384 13.2255 20.254C12.9156 20.4695 12.5421 20.5791 12.1625 20.566C11.7834 20.566 11.3138 20.688 11.1186 20.2387C10.8356 19.5481 11.1977 18.9601 11.557 18.3916C11.5747 18.3608 11.6 18.3351 11.6306 18.3167C12.1257 18.0393 11.9135 17.676 11.7268 17.3292C11.4413 16.8416 11.0629 16.4122 10.6121 16.0645C8.52985 14.3255 6.15339 13.0552 3.66091 11.9791C3.56024 11.9137 3.43936 11.8852 3.31939 11.8984C3.19941 11.9116 3.08798 11.9656 3.00455 12.0512C4.29182 14.686 7.53118 16.4612 6.87482 20.3385C5.27352 17.5151 3.41477 15.3296 0 14.5918C0.4951 15.1243 0.806307 15.4571 1.11186 15.7927C2.42458 17.2322 3.63545 18.7493 4.35122 20.566C4.91705 21.9528 5.3103 23.456 4.8152 24.9288C4.3201 26.4016 4.46722 26.8425 6.03456 27.253C8.38272 27.866 10.779 28.2543 13.1697 28.6703C15.3424 29.0503 15.3424 29.0364 15.8263 31.2248C15.764 31.5604 15.8263 31.9514 16.1629 31.9958C16.5901 32.0512 16.477 31.5437 16.6297 31.2996C16.6749 31.2248 16.6297 31.1 16.6297 30.9973C16.7165 30.7325 16.7725 30.459 16.7966 30.1819C16.7796 29.1612 17.3399 28.8839 18.2989 28.7674C21.0656 28.4286 23.8064 27.9106 26.5034 27.2169C27.8953 26.8647 28.1528 26.2878 27.5813 24.9815C27.4516 24.7339 27.38 24.4609 27.3719 24.1827C27.4257 22.6711 27.6549 21.2067 28.3735 19.831C29.2439 18.2236 30.34 16.7438 31.6299 15.4349C31.7741 15.274 32.1193 15.1576 31.958 14.8719Z" fill="#DE3F3F"></path></g><defs><clipPath id="clip0_1279_122163"><path d="M0 12.8C0 8.31958 0 6.07937 0.871948 4.36808C1.63893 2.86278 2.86278 1.63893 4.36808 0.871948C6.07937 0 8.31958 0 12.8 0H19.2C23.6804 0 25.9206 0 27.6319 0.871948C29.1372 1.63893 30.3611 2.86278 31.1281 4.36808C32 6.07937 32 8.31958 32 12.8V19.2C32 23.6804 32 25.9206 31.1281 27.6319C30.3611 29.1372 29.1372 30.3611 27.6319 31.1281C25.9206 32 23.6804 32 19.2 32H12.8C8.31958 32 6.07937 32 4.36808 31.1281C2.86278 30.3611 1.63893 29.1372 0.871948 27.6319C0 25.9206 0 23.6804 0 19.2V12.8Z" fill="white"></path></clipPath></defs></svg> 